<?xml version="1.0" encoding="UTF-8"?>
<svg width="151px" height="40px" viewBox="0 0 151 40" version="1.1" xmlns="http://www.w3.org/2000/svg" xmlns:xlink="http://www.w3.org/1999/xlink">
    <!-- Generator: Sketch 50 (54983) - http://www.bohemiancoding.com/sketch -->
    <title>Artboard</title>
    <desc>Created with Sketch.</desc>
    <defs></defs>
    <g id="Artboard" stroke="none" stroke-width="1" fill="none" fill-rule="evenodd">
        <path d="M6.96501142,27.7595837 L18.5212492,26.6645565 L7.13794051,19.047753 C5.57246611,18.0002623 4.33952372,16.8711755 3.48206835,15.6282685 C2.32163296,13.9461831 1.82709538,12.0172552 2.32865911,10.0574552 C2.83014302,8.0979671 4.19016285,6.6438097 6.01572275,5.72547388 C7.36485948,5.04679932 8.98893759,4.64804641 10.8658773,4.48038286 L23.5502664,3.34730982 C25.9697007,3.13118606 28.1062427,4.91732241 28.3223663,7.3367567 C28.5384898,9.7561912 26.7523537,11.8927331 24.3329192,12.1088566 L13.9691028,13.0346373 L25.2643214,20.5924979 C26.8321606,21.6415709 28.0670405,22.7743191 28.92526,24.0223352 C30.0819468,25.7043798 30.5741896,27.6318289 30.0786827,29.5885121 C29.583359,31.5444719 28.2339089,33.0050518 26.4170228,33.9345686 C25.0688258,34.6243049 23.4441117,35.03392 21.566391,35.2118462 L7.79481267,36.5167908 C5.37657661,36.7459341 3.23045166,34.9713237 3.0013084,32.5530877 C2.77216515,30.1348517 4.54677545,27.9887268 6.96501142,27.7595837 Z M89.7994056,3.33020273 C89.8177049,3.32997864 89.8360309,3.32986627 89.8543834,3.32986627 L103.268356,3.32986627 C110.434642,3.32986627 116.243685,9.13802313 116.243685,16.3046062 C116.243685,23.4711205 110.43607,29.2793462 103.268113,29.2793462 L94.1426449,29.2793462 L94.1426449,32.1425848 C94.1426449,34.5716529 92.1734961,36.5408017 89.7444279,36.5408017 C87.3153598,36.5408017 85.346211,34.5716529 85.346211,32.1425848 L85.346211,7.72808321 C85.346211,5.29901507 87.3153598,3.32986627 89.7444279,3.32986627 C89.7627804,3.32986627 89.7811064,3.32997864 89.7994056,3.33020273 Z M94.1426449,20.4829123 L103.268113,20.4829123 C105.577727,20.4829123 107.447251,18.6131914 107.447251,16.3046062 C107.447251,13.99646 105.576806,12.1263001 103.268356,12.1263001 L94.1426449,12.1263001 L94.1426449,20.4829123 Z M74.7426325,6.50994909 C75.4153894,4.1759031 77.8528846,2.82916248 80.1869306,3.50191924 C82.5209765,4.17467622 83.8677172,6.61217135 83.1949604,8.94621733 L76.1578133,33.3607189 C75.4850563,35.6947647 73.0475612,37.0415055 70.7135152,36.3687485 C68.3794692,35.6959918 67.0327286,33.2584964 67.7054854,30.9244507 L74.7426325,6.50994909 Z M59.0932809,18.8409922 L62.6475359,6.50994909 C63.3202929,4.1759031 65.757788,2.82916248 68.091834,3.50191924 C70.42588,4.17467622 71.7726206,6.61217135 71.0998638,8.94621733 L64.0627167,33.3607189 C62.9101184,37.3595144 57.3633338,37.6694598 55.7724092,33.8239679 L50.4085233,20.8586896 L44.5976571,33.629824 C42.8792111,37.4066285 37.3668189,36.9215039 36.3344424,32.9026101 L30.1769387,8.93232776 C29.5725794,6.57964367 30.9898767,4.18248657 33.3425608,3.57812736 C35.6952449,2.97376815 38.092402,4.39106541 38.6967612,6.7437495 L41.7531022,18.6416485 L46.5969937,7.99573318 C48.1901944,4.49419305 53.1937975,4.58109829 54.6644407,8.1358529 L59.0932809,18.8409922 Z M141.441396,26.2218591 C143.450471,24.8565789 146.185926,25.3784779 147.551206,27.3875528 C148.916486,29.3966277 148.394587,32.1320829 146.385512,33.4973631 L146.24215,33.5947856 C139.123448,38.4323471 128.699137,37.4497458 122.607676,31.3679152 L122.297096,31.0578261 C115.992956,24.7636529 115.977974,14.5650211 122.252159,8.25217606 C122.315076,8.18925671 122.319548,8.1848343 122.324023,8.18042399 C128.181447,2.37697124 137.810892,1.49644614 144.661376,5.96154158 C144.870145,6.08011311 145.078442,6.21834906 145.285324,6.37747897 L145.720686,6.71235129 C145.942573,6.883023 146.141648,7.06143557 146.319077,7.24607184 C152.369376,12.8111725 150.553329,20.6522514 142.238633,23.1988414 L128.597401,27.3768201 C126.274826,28.0881685 123.815345,26.7820114 123.103996,24.4594361 C122.392648,22.1368609 123.698805,19.67738 126.02138,18.9660315 C126.132581,18.9319733 126.16861,18.9209386 126.395593,18.8514193 C126.168632,20.9844355 126.874169,23.1974566 128.512191,24.8328894 L128.822771,25.1429787 C131.928304,28.2436017 137.669895,28.7848072 141.298034,26.3192816 L141.441396,26.2218591 Z M126.395593,18.8514193 C126.504379,18.8181008 126.657027,18.7713482 126.882835,18.7021889 L139.662612,14.7880529 C140.194312,14.625206 140.602931,14.4431922 140.887694,14.2677847 C140.717898,14.049017 140.470224,13.7962609 140.13998,13.5233674 C136.732584,11.087314 131.476843,11.4821206 128.50322,14.4410459 C127.269438,15.677086 126.566898,17.2414636 126.395593,18.8514193 Z" id="Combined-Shape" fill="#AB004F" fill-rule="nonzero"></path>
    </g>
</svg>